<svg width="86" height="86" viewBox="0 0 86 86" fill="none" xmlns="http://www.w3.org/2000/svg">
<path d="M80.1875 41.0078H51.9091C51.3807 41.0078 50.874 41.2177 50.5004 41.5913C50.1268 41.9649 49.9169 42.4716 49.9169 43C49.9169 43.5284 50.1268 44.0351 50.5004 44.4087C50.874 44.7823 51.3807 44.9922 51.9091 44.9922H80.1875C80.3635 44.9924 80.5323 45.0625 80.6568 45.1869C80.7813 45.3114 80.8513 45.4802 80.8516 45.6562V80.1875C80.8513 80.3636 80.7813 80.5323 80.6568 80.6568C80.5323 80.7813 80.3635 80.8513 80.1875 80.8516H76.8685V79.1622C76.8742 76.5741 76.1773 74.033 74.8521 71.81C73.5268 69.5869 71.623 67.7653 69.3437 66.5394C70.9045 65.2233 72.0232 63.4593 72.5484 61.4864C73.0736 59.5134 72.9798 57.4267 72.2798 55.5088C71.5798 53.5909 70.3074 51.9344 68.6348 50.7635C66.9622 49.5927 64.9703 48.9641 62.9286 48.9628C60.8869 48.9615 58.8942 49.5876 57.2201 50.7563C55.546 51.925 54.2715 53.5799 53.5691 55.4969C52.8666 57.4139 52.7702 59.5005 53.2929 61.4741C53.8155 63.4477 54.932 65.2131 56.4911 66.5312C54.2144 67.7614 52.3135 69.5854 50.9903 71.8094C49.6672 74.0334 48.9713 76.5744 48.9766 79.1622V80.8516H44.9922V50.9688C44.9922 50.4404 44.7823 49.9337 44.4087 49.5601C44.0351 49.1865 43.5284 48.9766 43 48.9766C42.4716 48.9766 41.9649 49.1865 41.5913 49.5601C41.2177 49.9337 41.0078 50.4404 41.0078 50.9688V80.8516H37.0234V79.1622C37.0292 76.5743 36.3323 74.0333 35.0073 71.8103C33.6822 69.5874 31.7785 67.7658 29.4994 66.5398C31.0603 65.2238 32.1791 63.4599 32.7044 61.4869C33.2297 59.514 33.136 57.4273 32.4361 55.5094C31.7362 53.5914 30.4639 51.9349 28.7914 50.7639C27.1189 49.593 25.127 48.9643 23.0853 48.9629C21.0436 48.9615 19.0509 49.5875 17.3767 50.7561C15.7026 51.9247 14.428 53.5795 13.7255 55.4965C13.0229 57.4135 12.9264 59.5001 13.449 61.4737C13.9716 63.4474 15.088 65.2128 16.6471 66.531C14.3701 67.761 12.4689 69.585 11.1455 71.8091C9.82222 74.0331 9.12621 76.5742 9.13148 79.1622V80.8516H5.8125C5.63645 80.8513 5.46768 80.7813 5.34319 80.6568C5.2187 80.5323 5.14867 80.3636 5.14844 80.1875V45.6562C5.14867 45.4802 5.2187 45.3114 5.34319 45.1869C5.46768 45.0625 5.63645 44.9924 5.8125 44.9922H34.0909C34.6193 44.9922 35.126 44.7823 35.4996 44.4087C35.8732 44.0351 36.0831 43.5284 36.0831 43C36.0831 42.4716 35.8732 41.9649 35.4996 41.5913C35.126 41.2177 34.6193 41.0078 34.0909 41.0078H5.8125C4.58012 41.0093 3.39863 41.4995 2.5272 42.371C1.65578 43.2424 1.16555 44.4239 1.16406 45.6562V80.1875C1.16555 81.4199 1.65578 82.6014 2.5272 83.4728C3.39863 84.3442 4.58012 84.8344 5.8125 84.8359H80.1875C81.4199 84.8344 82.6014 84.3442 83.4728 83.4728C84.3442 82.6014 84.8344 81.4199 84.8359 80.1875V45.6562C84.8344 44.4239 84.3442 43.2424 83.4728 42.371C82.6014 41.4995 81.4199 41.0093 80.1875 41.0078ZM23.0781 52.9609C24.2601 52.961 25.4155 53.3115 26.3982 53.9682C27.381 54.625 28.1469 55.5583 28.5992 56.6503C29.0515 57.7423 29.1698 58.9439 28.9392 60.1032C28.7086 61.2624 28.1394 62.3273 27.3036 63.163C26.4679 63.9988 25.403 64.568 24.2438 64.7986C23.0845 65.0292 21.8829 64.9109 20.7909 64.4586C19.6989 64.0063 18.7656 63.2403 18.1089 62.2576C17.4522 61.2749 17.1016 60.1195 17.1016 58.9375C17.1033 57.3529 17.7335 55.8338 18.854 54.7133C19.9744 53.5929 21.4936 52.9627 23.0781 52.9609ZM33.0391 80.8516H13.1159V79.1622C13.0831 76.4921 14.1046 73.9167 15.9588 71.9951C17.8129 70.0734 20.3501 68.9605 23.0197 68.8977L23.0198 68.8948C23.0394 68.8949 23.0584 68.8977 23.0781 68.8977C23.1054 68.8977 23.1316 68.8939 23.1589 68.8936C23.1737 68.8941 23.1877 68.8982 23.2026 68.8984C25.8613 68.9752 28.3832 70.0947 30.2236 72.015C32.064 73.9354 33.0753 76.5026 33.0391 79.1622V80.8516ZM62.9219 52.9609C64.1038 52.961 65.2592 53.3115 66.242 53.9682C67.2247 54.625 67.9907 55.5583 68.4429 56.6503C68.8952 57.7423 69.0136 58.9439 68.783 60.1032C68.5524 61.2624 67.9832 62.3273 67.1474 63.163C66.3116 63.9988 65.2468 64.568 64.0875 64.7986C62.9283 65.0292 61.7267 64.9109 60.6347 64.4586C59.5427 64.0063 58.6093 63.2403 57.9526 62.2576C57.2959 61.2749 56.9454 60.1195 56.9453 58.9375C56.947 57.3529 57.5773 55.8338 58.6977 54.7133C59.8182 53.5929 61.3373 52.9627 62.9219 52.9609ZM72.8841 80.8516H52.9609V79.1622C52.9282 76.4921 53.9497 73.9167 55.8039 71.9951C57.658 70.0734 60.1952 68.9605 62.8648 68.8977L62.8648 68.8948C62.8841 68.8949 62.9026 68.8977 62.9218 68.8977C62.9492 68.8977 62.9754 68.8939 63.0027 68.8936C63.0175 68.8941 63.0315 68.8982 63.0463 68.8984C65.7053 68.9749 68.2275 70.0943 70.0682 72.0147C71.9088 73.935 72.9203 76.5024 72.8841 79.1622V80.8516Z" fill="#E4E7FF"/>
<ellipse cx="43" cy="17.0627" rx="11.8242" ry="16.4503" transform="rotate(90 43 17.0627)" fill="#5750EC"/>
<path d="M60.2656 1.16406H25.7344C24.502 1.16555 23.3205 1.65578 22.4491 2.5272C21.5777 3.39863 21.0874 4.58012 21.0859 5.8125V32.375C21.0874 33.6074 21.5777 34.7889 22.4491 35.6603C23.3205 36.5317 24.502 37.022 25.7344 37.0235H37.7848L41.218 43.8911C41.3839 44.2215 41.6384 44.4993 41.9531 44.6935C42.2678 44.8876 42.6303 44.9904 43.0001 44.9904C43.3698 44.9904 43.7323 44.8876 44.047 44.6935C44.3617 44.4993 44.6162 44.2215 44.7821 43.8911L48.2153 37.0235H60.2656C61.498 37.022 62.6795 36.5317 63.5509 35.6603C64.4223 34.7889 64.9126 33.6074 64.9141 32.375V5.8125C64.9126 4.58012 64.4223 3.39863 63.5509 2.5272C62.6795 1.65578 61.498 1.16555 60.2656 1.16406ZM53.9531 12.6665L40.9378 25.6819C40.7381 25.8816 40.4982 26.0365 40.2341 26.1365C39.9699 26.2364 39.6876 26.279 39.4057 26.2615C39.1238 26.2439 38.8489 26.1666 38.5992 26.0347C38.3495 25.9028 38.1306 25.7193 37.9573 25.4964L31.8834 17.6872C31.7228 17.4807 31.6044 17.2447 31.535 16.9925C31.4657 16.7403 31.4466 16.4769 31.479 16.2174C31.5114 15.9579 31.5946 15.7072 31.7239 15.4798C31.8531 15.2525 32.0259 15.0527 32.2323 14.8921C32.4388 14.7315 32.6748 14.6131 32.927 14.5437C33.1792 14.4744 33.4426 14.4553 33.7021 14.4877C33.9616 14.5201 34.2123 14.6033 34.4397 14.7326C34.667 14.8618 34.8667 15.0346 35.0274 15.241L39.716 21.2688L51.1361 9.84941C51.3209 9.66384 51.5406 9.51655 51.7824 9.41596C52.0242 9.31537 52.2835 9.26347 52.5454 9.26321C52.8074 9.26295 53.0668 9.31435 53.3088 9.41447C53.5508 9.51458 53.7707 9.66144 53.9559 9.84665C54.1411 10.0318 54.288 10.2518 54.3881 10.4938C54.4882 10.7358 54.5396 10.9952 54.5394 11.2571C54.5391 11.5191 54.4872 11.7784 54.3866 12.0202C54.286 12.262 54.1387 12.4816 53.9531 12.6665Z" fill="white"/>
</svg>
