<svg width="84" height="84" viewBox="0 0 84 84" fill="none" xmlns="http://www.w3.org/2000/svg">
<path d="M65.625 68.25H18.375C17.8529 68.25 17.3521 68.4574 16.9829 68.8266C16.6137 69.1958 16.4063 69.6966 16.4062 70.2187C16.4063 70.7409 16.6137 71.2417 16.9829 71.6109C17.3521 71.9801 17.8529 72.1875 18.375 72.1875H32.3544C32.8063 74.4128 34.0136 76.4134 35.7717 77.8504C37.5298 79.2874 39.7306 80.0724 42.0013 80.0724C44.272 80.0724 46.4728 79.2874 48.2309 77.8504C49.9891 76.4134 51.1963 74.4128 51.6482 72.1875H65.625C66.1471 72.1875 66.6479 71.9801 67.0171 71.6109C67.3863 71.2417 67.5938 70.7409 67.5938 70.2187C67.5938 69.6966 67.3863 69.1958 67.0171 68.8266C66.6479 68.4574 66.1471 68.25 65.625 68.25ZM42 76.125C40.7825 76.1211 39.5961 75.7405 38.6035 75.0356C37.6109 74.3306 36.8607 73.3357 36.456 72.1875H47.544C47.1393 73.3357 46.3891 74.3306 45.3965 75.0356C44.4039 75.7405 43.2175 76.1211 42 76.125Z" fill="#E4E7FF"/>
<path d="M57.162 4.07538C56.6797 3.89936 56.1478 3.9187 55.6795 4.12929C55.2113 4.33989 54.8438 4.72506 54.6555 5.20269C54.4672 5.68033 54.4729 6.21263 54.6715 6.68611C54.87 7.15958 55.2456 7.53677 55.7183 7.73726C62.7148 10.4699 68.7213 15.2547 72.9489 21.4633C77.1765 27.6719 79.4275 35.0139 79.4063 42.5251C79.4063 43.0472 79.6137 43.548 79.9829 43.9172C80.3521 44.2864 80.8529 44.4938 81.375 44.4938C81.8972 44.4938 82.3979 44.2864 82.7672 43.9172C83.1364 43.548 83.3438 43.0472 83.3438 42.5251C83.3676 34.2231 80.8797 26.108 76.207 19.2459C71.5343 12.3837 64.8953 7.0953 57.162 4.07538Z" fill="#E4E7FF"/>
<path d="M57.4022 15.1251C57.1765 14.9904 56.9261 14.9021 56.6658 14.8657C56.4055 14.8293 56.1405 14.8453 55.8865 14.9129C55.6325 14.9805 55.3946 15.0983 55.1868 15.2593C54.9791 15.4203 54.8056 15.6213 54.6768 15.8504C54.548 16.0795 54.4663 16.3321 54.4366 16.5933C54.407 16.8545 54.4299 17.1189 54.5041 17.3711C54.5783 17.6233 54.7023 17.858 54.8686 18.0615C55.035 18.265 55.2404 18.4332 55.4728 18.556C59.74 20.9551 63.2933 24.4448 65.7689 28.668C68.2446 32.8913 69.5538 37.6964 69.5625 42.5918C69.5625 43.114 69.7699 43.6147 70.1391 43.9839C70.5084 44.3531 71.0091 44.5606 71.5313 44.5606C72.0534 44.5606 72.5542 44.3531 72.9234 43.9839C73.2926 43.6147 73.5 43.114 73.5 42.5918C73.4907 36.9979 71.9953 31.5069 69.1668 26.6808C66.3382 21.8547 62.2782 17.8667 57.4022 15.1251Z" fill="#E4E7FF"/>
<path d="M28.2869 7.74384C28.7596 7.54336 29.1352 7.16617 29.3337 6.6927C29.5323 6.21922 29.538 5.68692 29.3497 5.20928C29.1614 4.73165 28.7939 4.34648 28.3257 4.13589C27.8574 3.92529 27.3255 3.90595 26.8432 4.08197C19.11 7.1008 12.4707 12.3878 7.79715 19.2488C3.12358 26.1097 0.63427 34.2236 0.656149 42.5251C0.656149 43.0472 0.86357 43.548 1.23278 43.9172C1.602 44.2864 2.10275 44.4938 2.6249 44.4938C3.14705 44.4938 3.6478 44.2864 4.01702 43.9172C4.38623 43.548 4.59365 43.0472 4.59365 42.5251C4.5742 35.0144 6.8266 27.6734 11.0551 21.466C15.2836 15.2587 21.2904 10.4753 28.2869 7.74384Z" fill="#E4E7FF"/>
<path d="M28.5272 18.556C28.9679 18.2929 29.2883 17.868 29.4203 17.372C29.5523 16.876 29.4854 16.3481 29.2338 15.9007C28.9822 15.4533 28.5659 15.1219 28.0735 14.977C27.5811 14.8322 27.0516 14.8853 26.5978 15.1252C21.7218 17.8668 17.6618 21.8547 14.8333 26.6808C12.0047 31.5069 10.5093 36.9979 10.5 42.5918C10.5 43.114 10.7074 43.6147 11.0766 43.984C11.4458 44.3532 11.9466 44.5606 12.4687 44.5606C12.9909 44.5606 13.4917 44.3532 13.8609 43.984C14.2301 43.6147 14.4375 43.114 14.4375 42.5918C14.4463 37.6965 15.7554 32.8913 18.2311 28.6681C20.7067 24.4448 24.26 20.9551 28.5272 18.556Z" fill="#E4E7FF"/>
<ellipse cx="41.9999" cy="34.1763" rx="11.8242" ry="16.4503" transform="rotate(90 41.9999 34.1763)" fill="#5750EC"/>
<path d="M42 20.9358C36.2584 20.9424 30.7539 23.2261 26.694 27.286C22.6341 31.346 20.3504 36.8505 20.3438 42.592V62.2795C20.3438 62.8017 20.5512 63.3024 20.9204 63.6717C21.2896 64.0409 21.7904 64.2483 22.3125 64.2483H61.6875C62.2096 64.2483 62.7104 64.0409 63.0796 63.6717C63.4488 63.3024 63.6562 62.8017 63.6562 62.2795V42.592C63.6497 36.8505 61.3659 31.346 57.306 27.286C53.2461 23.2261 47.7416 20.9424 42 20.9358ZM54.9938 33.6946C54.6246 34.0637 54.1239 34.271 53.6018 34.271C53.0798 34.271 52.5791 34.0637 52.2099 33.6946C49.5004 30.991 45.829 29.4727 42.0013 29.4727C38.1736 29.4727 34.5023 30.991 31.7927 33.6946C31.6099 33.8776 31.3929 34.0227 31.154 34.1218C30.9151 34.2209 30.659 34.272 30.4004 34.2721C30.1418 34.2722 29.8857 34.2214 29.6467 34.1225C29.4077 34.0237 29.1905 33.8787 29.0076 33.6959C28.6381 33.3268 28.4303 32.8259 28.4301 32.3036C28.43 32.045 28.4808 31.7889 28.5796 31.5499C28.6785 31.3109 28.8235 31.0938 29.0063 30.9108C32.4547 27.4689 37.1278 25.5358 42 25.5358C46.8722 25.5358 51.5453 27.4689 54.9938 30.9108C55.3628 31.28 55.5702 31.7807 55.5702 32.3027C55.5702 32.8247 55.3628 33.3254 54.9938 33.6946Z" fill="white"/>
</svg>
