<svg width="84" height="84" viewBox="0 0 84 84" fill="none" xmlns="http://www.w3.org/2000/svg">
<path d="M40.2386 82.257L34.4715 70.7201C25.9279 68.8627 18.3726 63.9125 13.2582 56.8214C8.14372 49.7302 5.83121 40.9987 6.76527 32.3056C7.69933 23.6126 11.814 15.5716 18.3182 9.72889C24.8224 3.88614 33.2569 0.654053 42 0.654053C50.7431 0.654053 59.1776 3.88614 65.6818 9.72889C72.1859 15.5716 76.3006 23.6126 77.2347 32.3056C78.1687 40.9987 75.8562 49.7302 70.7418 56.8214C65.6273 63.9125 58.072 68.8627 49.5285 70.7201L43.7613 82.257C43.5979 82.5843 43.3466 82.8595 43.0354 83.0519C42.7243 83.2443 42.3658 83.3462 42 83.3462C41.6342 83.3462 41.2756 83.2443 40.9645 83.0519C40.6534 82.8595 40.402 82.5843 40.2386 82.257ZM42 4.59375C34.155 4.59684 26.5935 7.52713 20.795 12.8112C14.9966 18.0953 11.3786 25.3529 10.6489 33.1639C9.91923 40.9749 12.1304 48.777 16.8499 55.0437C21.5693 61.3103 28.4572 65.5904 36.1659 67.0464C36.464 67.102 36.7453 67.2256 36.9878 67.4078C37.2302 67.5899 37.4273 67.8256 37.5637 68.0964L42 76.9729L46.4362 68.1004C46.5726 67.8295 46.7697 67.5938 47.0122 67.4117C47.2546 67.2296 47.5359 67.1059 47.834 67.0504C55.5472 65.5988 62.4408 61.3201 67.1645 55.0522C71.8882 48.7843 74.1019 40.9787 73.3719 33.1641C72.642 25.3495 69.021 18.0889 63.2181 12.8043C57.4153 7.51962 49.8486 4.59163 42 4.59375Z" fill="#E4E7FF"/>
<ellipse cx="43.8441" cy="34.4584" rx="11.8242" ry="16.4503" fill="#5750EC"/>
<path d="M42 14.4375C37.7168 14.4375 33.5298 15.7076 29.9684 18.0872C26.4071 20.4669 23.6314 23.8491 21.9922 27.8063C20.3531 31.7634 19.9243 36.1178 20.7599 40.3187C21.5955 44.5196 23.658 48.3783 26.6867 51.407C29.7154 54.4357 33.5742 56.4983 37.7751 57.3339C41.976 58.1695 46.3303 57.7406 50.2875 56.1015C54.2447 54.4624 57.6269 51.6867 60.0065 48.1253C62.3861 44.564 63.6563 40.3769 63.6563 36.0937C63.6497 30.3522 61.3659 24.8477 57.306 20.7878C53.2461 16.7279 47.7416 14.4441 42 14.4375ZM49.8881 43.9832C49.5189 44.3523 49.0183 44.5596 48.4962 44.5596C47.9742 44.5596 47.4735 44.3523 47.1043 43.9832L40.6074 37.4863C40.4247 37.3034 40.2797 37.0863 40.1808 36.8473C40.082 36.6084 40.0311 36.3523 40.0313 36.0937V22.9687C40.0313 22.4466 40.2387 21.9458 40.6079 21.5766C40.9771 21.2074 41.4779 21 42 21C42.5222 21 43.0229 21.2074 43.3921 21.5766C43.7613 21.9458 43.9688 22.4466 43.9688 22.9687V35.2787L49.8881 41.1994C50.2572 41.5686 50.4646 42.0692 50.4646 42.5913C50.4646 43.1133 50.2572 43.614 49.8881 43.9832Z" fill="white"/>
</svg>
