<svg width="294" height="122" viewBox="0 0 294 122" fill="none" xmlns="http://www.w3.org/2000/svg">
<rect x="0.5" width="23" height="23" fill="white" fill-opacity="0.06"/>
<rect x="0.5" y="33" width="23" height="23" fill="white" fill-opacity="0.06"/>
<rect x="0.5" y="66" width="23" height="23" fill="white" fill-opacity="0.06"/>
<rect x="0.5" y="99" width="23" height="23" fill="white" fill-opacity="0.06"/>
<rect x="30.5" width="23" height="23" fill="white" fill-opacity="0.06"/>
<rect x="30.5" y="33" width="23" height="23" fill="white" fill-opacity="0.06"/>
<rect x="30.5" y="66" width="23" height="23" fill="white" fill-opacity="0.06"/>
<rect x="30.5" y="99" width="23" height="23" fill="white" fill-opacity="0.06"/>
<rect x="60.5" width="23" height="23" fill="white" fill-opacity="0.06"/>
<rect x="60.5" y="33" width="23" height="23" fill="white" fill-opacity="0.06"/>
<rect x="60.5" y="66" width="23" height="23" fill="white" fill-opacity="0.06"/>
<rect x="60.5" y="99" width="23" height="23" fill="white" fill-opacity="0.06"/>
<rect x="90.5" width="23" height="23" fill="white" fill-opacity="0.06"/>
<rect x="90.5" y="33" width="23" height="23" fill="white" fill-opacity="0.06"/>
<rect x="90.5" y="66" width="23" height="23" fill="white" fill-opacity="0.06"/>
<rect x="90.5" y="99" width="23" height="23" fill="white" fill-opacity="0.06"/>
<rect x="120.5" width="23" height="23" fill="white" fill-opacity="0.06"/>
<rect x="120.5" y="33" width="23" height="23" fill="white" fill-opacity="0.06"/>
<rect x="120.5" y="66" width="23" height="23" fill="white" fill-opacity="0.06"/>
<rect x="120.5" y="99" width="23" height="23" fill="white" fill-opacity="0.06"/>
<rect x="150.5" width="23" height="23" fill="white" fill-opacity="0.06"/>
<rect x="150.5" y="33" width="23" height="23" fill="white" fill-opacity="0.06"/>
<rect x="150.5" y="66" width="23" height="23" fill="white" fill-opacity="0.06"/>
<rect x="150.5" y="99" width="23" height="23" fill="white" fill-opacity="0.06"/>
<rect x="180.5" width="23" height="23" fill="white" fill-opacity="0.06"/>
<rect x="180.5" y="33" width="23" height="23" fill="white" fill-opacity="0.06"/>
<rect x="180.5" y="66" width="23" height="23" fill="white" fill-opacity="0.06"/>
<rect x="180.5" y="99" width="23" height="23" fill="white" fill-opacity="0.06"/>
<rect x="210.5" width="23" height="23" fill="white" fill-opacity="0.06"/>
<rect x="210.5" y="33" width="23" height="23" fill="white" fill-opacity="0.06"/>
<rect x="210.5" y="66" width="23" height="23" fill="white" fill-opacity="0.06"/>
<rect x="210.5" y="99" width="23" height="23" fill="white" fill-opacity="0.06"/>
<rect x="240.5" width="23" height="23" fill="white" fill-opacity="0.06"/>
<rect x="240.5" y="33" width="23" height="23" fill="white" fill-opacity="0.06"/>
<rect x="240.5" y="66" width="23" height="23" fill="white" fill-opacity="0.06"/>
<rect x="240.5" y="99" width="23" height="23" fill="white" fill-opacity="0.06"/>
<rect x="270.5" width="23" height="23" fill="white" fill-opacity="0.06"/>
<rect x="270.5" y="33" width="23" height="23" fill="white" fill-opacity="0.06"/>
<rect x="270.5" y="66" width="23" height="23" fill="white" fill-opacity="0.06"/>
<rect x="270.5" y="99" width="23" height="23" fill="white" fill-opacity="0.06"/>
</svg>
