<svg width="354" height="312" viewBox="0 0 354 312" fill="none" xmlns="http://www.w3.org/2000/svg">
<g clip-path="url(#clip0_14_2593)">
<path d="M293.501 251.328C349.987 187.525 354.503 99.2348 303.588 54.1248C252.673 9.01483 165.608 24.1678 109.121 87.9699C52.6354 151.772 48.1191 240.063 99.0341 285.173C149.949 330.283 237.015 315.13 293.501 251.328Z" stroke="#8482D8" stroke-width="1.70073" stroke-miterlimit="10"/>
<path d="M17.1221 169.978C16.2258 173.907 4.37255 229.805 40.1669 264.744C63.3538 287.377 100.351 295.18 120.951 287.662C125.295 286.077 138.211 280.415 152.385 272.393C159.469 268.384 163.409 265.743 165.131 264.723C189.94 250.028 232.884 288.581 269.679 285.756C307.333 282.865 343.053 236.3 348.757 192.27C356.796 130.225 304.43 79.3582 261.901 59.8887C168.257 17.0179 36.0546 86.9539 17.1221 169.978Z" fill="#EEF1F9" fill-opacity="0.3"/>
<path d="M2.07659 247.448L6.43301 242.317L11.0309 246.225L12.7691 244.177L8.17115 240.27L12.5276 235.139L10.6925 233.58L6.33607 238.711L1.73815 234.803L0 236.851L4.59792 240.758L0.241504 245.889L2.07659 247.448Z" fill="#E4E7FF"/>
<path d="M293.707 27.0873C298.014 38.3741 314.901 32.2518 310.981 20.8263C306.674 9.53953 289.787 15.6627 293.707 27.0873ZM307.872 21.9535C310.38 29.2668 299.572 33.1833 296.817 25.9602C294.309 18.6469 305.117 14.7304 307.872 21.9535Z" fill="#CECDFF"/>
<path d="M309.17 278.904L314.911 282.434L311.836 287.44L314.127 288.849L317.203 283.843L322.945 287.373L324.172 285.375L318.43 281.845L321.506 276.839L319.214 275.43L316.139 280.436L310.397 276.906L309.17 278.904Z" fill="#AEABEF"/>
<path d="M311.272 238.856C315.5 241.664 311.434 248.024 307.113 245.363C302.885 242.556 306.952 236.195 311.272 238.856Z" fill="#8482D8"/>
<path d="M39.74 245.37C42.9017 241.399 48.884 246.003 45.8592 250.078C42.6976 254.048 36.7153 249.445 39.74 245.37Z" fill="#8482D8"/>
<path d="M267.592 9.90615L261.941 6.86583L264.98 1.21307L262.725 0L259.686 5.65276L254.036 2.61243L252.823 4.86758L258.473 7.90791L255.434 13.5607L257.689 14.7737L260.728 9.12183L266.378 12.1622L267.592 9.90615Z" fill="#CECDFF"/>
<path d="M347.536 249.652C354.863 250.714 356.627 239.841 349.341 238.531C342.014 237.47 340.25 248.342 347.536 249.652ZM349.017 240.533C353.68 241.373 352.55 248.33 347.861 247.651C343.198 246.811 344.328 239.853 349.017 240.533Z" fill="#CECDFF"/>
<path d="M260.607 51.5069C259.78 45.8278 268.179 44.4667 269.21 50.0965C270.037 55.7756 261.638 57.1367 260.607 51.5069Z" fill="#E4E7FF"/>
<path d="M297.652 135.21L311.93 113.728C315.897 107.391 311.989 101.617 306.077 98.5681C301.781 95.7106 295.929 96.8888 293.073 101.186L278.795 122.669C204.017 88.4552 143.36 196.842 212.74 242.523C281.694 288.835 358.13 190.938 297.652 135.209V135.21Z" fill="#6D6DBF"/>
<path d="M300.344 131.16L297.652 135.209C292.233 130.121 285.583 125.699 278.796 122.668L283.163 116.098C288.248 117.549 298.16 126.167 300.344 131.16Z" fill="#4D3A79"/>
<path d="M299.321 217.656C255.772 280.817 160.783 217.626 202.155 153.028C245.704 89.869 340.692 153.06 299.321 217.656Z" fill="#46230D"/>
<path d="M270.701 223.187C283.123 248.213 230.86 242.397 219.675 231.702C194.183 214.75 187.258 180.334 204.205 154.835C208.22 148.794 196.218 186.711 214.194 185.774C232.152 184.837 219.605 207.424 234.924 216.119C244.006 221.275 261.463 210.471 270.702 223.187H270.701Z" fill="url(#paint0_linear_14_2593)"/>
<path d="M270.701 223.187C273.244 226.32 273.07 230.822 271.712 233.566C260.88 211.254 237.39 230.26 226.445 211.954C219.774 200.997 225.971 188.417 214.193 185.773C214.193 185.773 219.187 185.642 221.598 187.587C228.348 193.032 222.558 209.099 234.923 216.118C244.005 221.274 261.463 210.47 270.701 223.187V223.187Z" fill="url(#paint1_linear_14_2593)"/>
<path d="M268.786 240.846C323.572 202.748 280.34 116.791 217.556 137.321C292.286 90.5557 351.546 209.481 268.786 240.846Z" fill="#351808"/>
<path d="M217.425 194.284C218.555 200.444 209.427 202.281 208.089 196.164C206.958 190.004 216.086 188.168 217.425 194.284Z" fill="#46230D"/>
<path d="M215.874 206.44C217.192 213.627 206.543 215.769 204.981 208.633C203.662 201.447 214.311 199.304 215.874 206.44Z" fill="#46230D"/>
<path d="M226.922 216.59C227.505 219.767 222.799 220.714 222.108 217.56C221.526 214.385 226.232 213.437 226.922 216.59Z" fill="#46230D"/>
<path d="M220.678 201.398C221.073 203.404 218.027 204.017 217.614 202.015C217.22 200.009 220.266 199.396 220.678 201.398Z" fill="#46230D"/>
<path d="M223.776 209.253C224.164 211.37 221.027 212.001 220.567 209.899C220.178 207.782 223.316 207.151 223.776 209.253Z" fill="#46230D"/>
<path d="M217.421 218.403C217.981 221.451 213.464 222.36 212.802 219.333C212.242 216.285 216.759 215.376 217.421 218.403Z" fill="#46230D"/>
<path d="M238.529 225.237C239.171 228.734 233.989 229.777 233.229 226.305C232.587 222.807 237.769 221.765 238.529 225.237Z" fill="#46230D"/>
<path d="M260.013 225.137C260.376 226.984 257.571 227.548 257.192 225.705C256.829 223.859 259.633 223.295 260.013 225.137Z" fill="#46230D"/>
<path d="M258.024 229.84C259.025 235.294 250.943 236.92 249.758 231.505C248.757 226.051 256.839 224.425 258.024 229.84Z" fill="#46230D"/>
<path d="M269.283 232.482C269.696 234.728 266.367 235.397 265.879 233.167C265.467 230.922 268.795 230.252 269.283 232.482Z" fill="#46230D"/>
<path d="M265.057 229.082C265.552 231.777 261.558 232.581 260.973 229.904C260.478 227.209 264.472 226.406 265.057 229.082Z" fill="#46230D"/>
<path d="M264.801 222.78C265.145 224.53 262.486 225.066 262.127 223.319C261.782 221.569 264.441 221.033 264.801 222.78Z" fill="#46230D"/>
<path d="M262.477 235.624C262.96 238.255 259.061 239.04 258.49 236.427C258.007 233.797 261.905 233.012 262.477 235.624Z" fill="#46230D"/>
<path d="M202.108 170.719C202.49 172.804 199.4 173.426 198.947 171.356C198.564 169.271 201.655 168.649 202.108 170.719Z" fill="#46230D"/>
<path d="M200.298 178.068C200.667 179.947 197.815 180.521 197.429 178.646C197.06 176.768 199.912 176.193 200.298 178.068Z" fill="#46230D"/>
<path d="M202.677 181.588C202.901 182.627 201.265 182.956 201.071 181.912C200.847 180.874 202.483 180.544 202.677 181.588Z" fill="#46230D"/>
<path d="M204.287 186.579C205.165 191.359 198.081 192.784 197.042 188.037C196.165 183.258 203.248 181.832 204.287 186.579Z" fill="#46230D"/>
<path d="M246.546 222.332C246.909 224.179 244.105 224.743 243.725 222.9C243.362 221.053 246.167 220.489 246.546 222.332Z" fill="#46230D"/>
<path d="M244.469 228.85C244.666 229.762 243.228 230.052 243.058 229.134C242.861 228.221 244.298 227.932 244.469 228.85Z" fill="#46230D"/>
<path d="M241.752 222.64C242.037 223.961 239.956 224.38 239.708 223.051C239.422 221.729 241.504 221.31 241.752 222.64Z" fill="#46230D"/>
<path d="M247.909 226.587C248.175 227.814 246.242 228.204 246.012 226.969C245.747 225.743 247.679 225.353 247.909 226.587Z" fill="#46230D"/>
<path d="M243.313 226.628C243.558 227.761 241.774 228.12 241.561 226.98C241.316 225.848 243.1 225.488 243.313 226.628Z" fill="#46230D"/>
<path d="M231.782 235.453C231.979 236.366 230.541 236.655 230.371 235.737C230.174 234.825 231.612 234.535 231.782 235.453Z" fill="#46230D"/>
<path d="M219.089 202.047C219.374 203.368 217.293 203.787 217.045 202.458C216.759 201.137 218.841 200.717 219.089 202.047Z" fill="#46230D"/>
<path d="M228.216 230.554C228.481 231.78 226.548 232.17 226.319 230.935C226.053 229.709 227.986 229.319 228.216 230.554Z" fill="#46230D"/>
<path d="M230.626 233.231C230.871 234.365 229.087 234.724 228.875 233.584C228.63 232.451 230.413 232.092 230.626 233.231Z" fill="#46230D"/>
<path d="M241.693 231.155C242.106 233.401 238.777 234.07 238.289 231.841C237.877 229.595 241.205 228.925 241.693 231.155Z" fill="#46230D"/>
<path d="M230.173 233.5C230.542 235.379 227.69 235.953 227.304 234.078C226.935 232.2 229.787 231.626 230.173 233.5Z" fill="#46230D"/>
<path d="M226.861 232.877C227.065 233.821 225.578 234.12 225.401 233.17C225.197 232.226 226.684 231.927 226.861 232.877Z" fill="#46230D"/>
<path d="M223.996 229.202C224.384 231.176 221.386 231.78 220.982 229.809C220.594 227.836 223.591 227.232 223.996 229.202Z" fill="#46230D"/>
<path d="M217.425 194.284C217.761 195.952 217.181 197.592 216.031 198.683C221.166 194.585 214.784 187.008 209.87 191.434C212.539 189.304 216.829 190.891 217.424 194.284H217.425Z" fill="#351808"/>
<path d="M209.72 201.757C208.672 201.968 207.753 202.461 207.026 203.142C212.624 198.917 219.255 206.813 214.219 211.599C218.8 208.201 215.385 200.516 209.72 201.757Z" fill="#351808"/>
<path d="M224.158 214.541C223.645 214.644 223.203 214.901 222.868 215.252C225.26 213.595 228.038 216.915 226.029 218.977C228.203 217.551 226.741 213.981 224.158 214.541Z" fill="#351808"/>
<path d="M220.512 201.584C220.61 202.07 220.471 202.549 220.174 202.901C222.177 201.586 219.806 198.781 218.176 200.552C219.071 199.994 220.323 200.54 220.512 201.584Z" fill="#351808"/>
<path d="M221.154 208.363C222.716 207.388 224.454 209.465 223.248 210.828C225.324 209.448 222.861 206.531 221.154 208.363Z" fill="#351808"/>
<path d="M214.695 216.548C214.199 216.647 213.772 216.897 213.45 217.238C215.742 215.664 218.394 218.833 216.482 220.81C218.579 219.446 217.179 216.009 214.695 216.547V216.548Z" fill="#351808"/>
<path d="M235.734 222.789C235.178 222.901 234.695 223.177 234.328 223.555C236.969 221.685 240.068 225.38 237.817 227.655C240.181 226.068 238.561 222.175 235.734 222.789Z" fill="#351808"/>
<path d="M259.761 225.391C259.849 225.831 259.727 226.264 259.463 226.587C261.346 225.38 259.125 222.761 257.626 224.431C258.452 223.932 259.588 224.437 259.761 225.391Z" fill="#351808"/>
<path d="M257.636 230.171C257.932 231.64 257.425 233.083 256.419 234.049C261.023 230.43 255.336 223.66 250.976 227.627C253.345 225.769 257.11 227.181 257.637 230.171H257.636Z" fill="#351808"/>
<path d="M269.4 232.307C269.167 230.918 267.27 230.433 266.391 231.506C268.053 230.448 269.918 232.674 268.616 234.123C269.213 233.751 269.546 233.036 269.4 232.306V232.307Z" fill="#351808"/>
<path d="M265.281 228.936C265.004 227.293 262.777 226.693 261.704 227.938C263.717 226.589 266.026 229.341 264.384 231.088C265.072 230.634 265.453 229.794 265.281 228.936Z" fill="#351808"/>
<path d="M264.49 222.995C264.574 223.408 264.461 223.814 264.216 224.119C266.078 222.964 263.747 220.54 262.479 222.078C263.261 221.616 264.327 222.096 264.491 222.995H264.49Z" fill="#351808"/>
<path d="M260.17 233.963C259.728 234.051 259.35 234.278 259.069 234.586C261.031 233.278 263.277 235.955 261.684 237.66C263.528 236.501 262.331 233.496 260.169 233.963H260.17Z" fill="#351808"/>
<path d="M201.816 171.031C201.918 171.536 201.771 172.033 201.461 172.397C203.512 171.039 201.081 168.159 199.399 169.97C200.322 169.388 201.621 169.95 201.816 171.031Z" fill="#351808"/>
<path d="M204.287 186.579C204.544 187.853 204.11 189.106 203.246 189.952C207.335 186.779 202.294 180.796 198.472 184.333C200.552 182.727 203.827 183.969 204.287 186.579Z" fill="#351808"/>
<path d="M207.409 204.855C205.488 206.052 205.88 210.748 208.458 211.831C209.832 212.488 211.617 212.309 211.785 211.769C211.937 211.28 210.622 210.938 209.438 209.407C207.757 207.234 208.066 204.89 207.409 204.855Z" fill="url(#paint2_linear_14_2593)"/>
<path d="M209.826 193.232C207.003 196.277 211.896 201.257 214.89 197.78C216.66 194.815 212.164 191.338 209.826 193.232Z" fill="url(#paint3_linear_14_2593)"/>
<path d="M214.118 217.828C213.778 218.059 213.754 219.143 214.489 219.677C215.229 220.213 216.255 219.846 216.367 219.45C216.542 218.829 214.652 217.466 214.117 217.828H214.118Z" fill="url(#paint4_linear_14_2593)"/>
<path d="M253.499 227.715C253.154 227.404 252.066 227.865 251.448 228.583C249.771 230.406 251.446 234.029 253.565 233.573C253.856 233.288 253.069 232.572 252.93 231.169C252.742 229.277 253.93 228.102 253.5 227.714L253.499 227.715Z" fill="url(#paint5_linear_14_2593)"/>
<path d="M260.113 235.442C259.498 235.732 259.471 236.77 259.833 237.068C260.282 237.436 261.541 236.847 261.545 236.268C261.548 235.799 260.73 235.152 260.113 235.442Z" fill="url(#paint6_linear_14_2593)"/>
<path d="M199.533 184.828C200.157 184.198 202.77 184.647 203.202 186.468C203.518 187.797 202.531 189.273 201.698 189.301C200.355 189.347 198.711 185.656 199.533 184.828Z" fill="url(#paint7_linear_14_2593)"/>
<path d="M200.958 171.002C201.185 172.049 199.535 172.381 199.339 171.327C199.112 170.28 200.762 169.948 200.958 171.002Z" fill="url(#paint8_linear_14_2593)"/>
<path d="M217.155 180.875C217.709 183.89 213.24 184.79 212.584 181.795C212.031 178.78 216.499 177.88 217.155 180.875Z" fill="#351808"/>
<path d="M212.089 178.579C212.433 180.329 209.774 180.865 209.414 179.118C209.07 177.367 211.729 176.832 212.089 178.579Z" fill="#351808"/>
<path d="M216.824 181.245C217.378 184.261 212.909 185.16 212.254 182.165C211.7 179.15 216.169 178.25 216.824 181.245Z" fill="url(#paint9_linear_14_2593)"/>
<path d="M211.676 182.56C211.983 184.12 209.613 184.596 209.293 183.04C208.985 181.479 211.355 181.003 211.676 182.56Z" fill="url(#paint10_linear_14_2593)"/>
<path d="M211.788 178.842C212.132 180.592 209.473 181.128 209.113 179.38C208.769 177.63 211.428 177.095 211.788 178.842Z" fill="url(#paint11_linear_14_2593)"/>
<path d="M216.533 181.151C216.793 181.843 215.177 184.22 213.609 183.351C212.796 182.832 212.344 181.546 213.498 181.813C214.237 181.894 214.445 182.205 214.851 182.249C215.735 182.344 216.369 181.053 216.533 181.151Z" fill="#46230D"/>
<path d="M276.328 230.026C276.636 231.586 274.266 232.063 273.945 230.506C273.638 228.946 276.008 228.469 276.328 230.026Z" fill="url(#paint12_linear_14_2593)"/>
<path d="M278.202 224.005C278.72 226.828 274.537 227.671 273.923 224.867C273.405 222.043 277.588 221.202 278.202 224.005Z" fill="url(#paint13_linear_14_2593)"/>
<path d="M90.8036 73.7938L36.6065 96.5945C28.7143 99.9147 25.079 109.34 28.5255 117.539L88.9235 261.212C92.37 269.411 101.647 273.405 109.539 270.084L163.736 247.284C171.628 243.964 175.265 234.537 171.818 226.338L111.42 82.6655C107.973 74.4667 98.695 70.4736 90.8028 73.7938H90.8036Z" fill="#AA99FF"/>
<path d="M91.875 75.3856L36.9968 98.473C30.0119 101.412 26.7924 109.755 29.8443 117.013L90.2228 260.638C93.2747 267.898 101.487 271.432 108.472 268.493L163.35 245.406C170.335 242.467 173.554 234.124 170.502 226.864L110.124 83.2391C107.073 75.9811 98.8608 72.4465 91.875 75.3856Z" fill="url(#paint14_linear_14_2593)"/>
<path d="M91.875 75.3856L36.9968 98.473C30.0119 101.412 26.7924 109.755 29.8443 117.013L90.2228 260.638C93.2747 267.898 101.487 271.432 108.472 268.493L163.35 245.406C170.335 242.467 173.554 234.124 170.502 226.864L110.124 83.2391C107.073 75.9811 98.8608 72.4465 91.875 75.3856Z" fill="#E4E7FF"/>
<path d="M159.993 234.698L102.908 258.713C100.109 259.891 96.887 258.575 95.7101 255.777L48.912 144.455C47.7351 141.656 49.0498 138.432 51.8475 137.255L108.932 113.24C111.731 112.062 114.953 113.377 116.13 116.176L162.928 227.498C164.105 230.297 162.79 233.52 159.993 234.698Z" fill="#F3F5FF"/>
<path d="M57.385 120.367C58.6682 123.418 58.1095 126.783 56.2149 129.225C55.3152 130.384 54.1128 131.335 52.6638 131.945C51.0294 132.633 49.3057 132.792 47.6824 132.5C44.8345 131.988 42.2944 130.09 41.0895 127.222C39.1966 122.72 41.3106 117.536 45.8107 115.644C50.3108 113.75 55.493 115.865 57.385 120.367Z" fill="#CECDFF"/>
<path d="M50.426 125.888C52.0763 124.89 52.6055 122.742 51.608 121.091C50.6105 119.441 48.464 118.911 46.8137 119.909C45.1634 120.907 44.6342 123.054 45.6317 124.705C46.6292 126.356 48.7757 126.885 50.426 125.888Z" fill="#F3F5FF"/>
<path d="M55.9668 128.453C56.0739 128.707 56.1555 128.965 56.2151 129.225C55.3154 130.384 54.113 131.335 52.6639 131.945C51.0295 132.633 49.3059 132.792 47.6825 132.5C47.5992 132.351 47.5235 132.195 47.4555 132.035C46.4673 129.683 47.5711 126.976 49.9215 125.986C52.2719 124.998 54.9786 126.102 55.9676 128.453H55.9668Z" fill="#F3F5FF"/>
<path d="M108.646 101.654C108.598 100.538 108.215 99.4256 107.473 98.4788C105.588 96.0706 102.107 95.6469 99.6992 97.5329C97.2919 99.4188 96.8684 102.901 98.7536 105.31C99.9544 106.844 101.802 107.573 103.608 107.412C104.637 107.321 105.653 106.941 106.528 106.255C106.999 105.886 107.393 105.455 107.711 104.984C108.489 104.972 109.269 104.961 110.048 104.949C110.71 104.939 111.041 104.145 110.582 103.668C109.937 102.997 109.291 102.326 108.646 101.654Z" fill="#CECDFF"/>
<path d="M101.668 102.637C101.873 103.126 101.644 103.69 101.154 103.896C100.665 104.102 100.101 103.872 99.8948 103.382C99.6889 102.893 99.9186 102.329 100.409 102.123C100.898 101.917 101.462 102.147 101.668 102.637Z" fill="#F3F5FF"/>
<path d="M104.12 101.605C104.326 102.094 104.096 102.658 103.606 102.864C103.117 103.07 102.553 102.84 102.347 102.35C102.141 101.861 102.371 101.297 102.861 101.091C103.35 100.885 103.914 101.115 104.12 101.605Z" fill="#F3F5FF"/>
<path d="M106.573 100.573C106.779 101.062 106.55 101.626 106.06 101.832C105.57 102.038 105.006 101.808 104.801 101.318C104.595 100.829 104.824 100.265 105.314 100.059C105.804 99.8535 106.368 100.083 106.573 100.573Z" fill="#F3F5FF"/>
<path d="M109.5 133.963C109.346 134.029 109.162 134.012 109.017 133.905C108.799 133.744 108.753 133.436 108.915 133.218L111.377 129.892L107.137 129.053C106.871 129 106.698 128.742 106.75 128.475C106.803 128.209 107.062 128.036 107.328 128.088L113.091 129.228L109.704 133.803C109.649 133.876 109.579 133.931 109.5 133.964L109.5 133.963Z" fill="#60439D"/>
<path d="M66.808 160.548C66.9279 160.833 66.9576 161.046 66.899 161.187C66.8403 161.328 66.728 161.434 66.5631 161.503C66.3981 161.573 66.245 161.579 66.1039 161.523C65.9627 161.467 65.8326 161.296 65.7119 161.009L64.7765 158.784L63.8394 159.178L64.7458 161.334C64.9661 161.857 65.2663 162.177 65.6464 162.292C66.0265 162.407 66.4262 162.377 66.8445 162.201C67.2595 162.026 67.5589 161.763 67.7417 161.411C67.9245 161.058 67.9058 160.62 67.6864 160.097L66.7799 157.941L65.8726 158.323L66.808 160.548Z" fill="#60439D"/>
<path d="M69.6577 159.04C69.3405 159.11 69.1415 159.141 69.0615 159.132C68.9808 159.124 68.928 159.089 68.9017 159.026C68.8762 158.965 68.8796 158.909 68.9119 158.857C68.9442 158.806 69.0122 158.758 69.1168 158.714C69.2214 158.669 69.309 158.661 69.3796 158.686C69.4502 158.713 69.5029 158.767 69.5378 158.851L69.559 158.903L70.4442 158.53L70.4289 158.493C70.3158 158.224 70.1186 158.056 69.8371 157.991C69.5556 157.927 69.2342 157.971 68.8711 158.123C68.508 158.276 68.2512 158.47 68.0998 158.705C67.9484 158.94 67.9297 159.193 68.0428 159.462C68.127 159.663 68.2605 159.807 68.4416 159.892C68.6228 159.977 68.8855 159.982 69.2291 159.907C69.5412 159.843 69.7384 159.811 69.8218 159.811C69.9051 159.811 69.9621 159.847 69.9935 159.921C70.0242 159.993 70.0208 160.06 69.985 160.123C69.9493 160.186 69.8728 160.242 69.7571 160.292C69.6423 160.34 69.5454 160.356 69.4646 160.34C69.3838 160.324 69.3218 160.265 69.2792 160.164L69.2546 160.105L68.3634 160.477L68.3787 160.514C68.502 160.806 68.7052 160.981 68.9901 161.038C69.2741 161.094 69.6134 161.039 70.008 160.874C70.4051 160.707 70.6781 160.503 70.8261 160.262C70.974 160.022 70.9885 159.758 70.8677 159.472C70.7759 159.255 70.6364 159.11 70.4485 159.038C70.2606 158.965 69.9969 158.966 69.6585 159.039L69.6577 159.04Z" fill="#60439D"/>
<path d="M71.7724 156.903C71.383 157.067 71.11 157.324 70.9518 157.673C70.7937 158.023 70.8005 158.401 70.9714 158.808L71.0046 158.886C71.1755 159.294 71.44 159.564 71.7971 159.698C72.1543 159.831 72.548 159.808 72.9783 159.627C73.2546 159.511 73.4774 159.358 73.6458 159.169C73.8142 158.979 73.9018 158.778 73.9086 158.566L73.0829 158.434C73.0624 158.541 73.0208 158.646 72.9587 158.752C72.8958 158.857 72.8039 158.935 72.6832 158.986C72.5259 159.052 72.383 159.051 72.2537 158.983C72.1526 158.931 72.0641 158.834 71.9884 158.695L73.7325 157.961L73.6024 157.652C73.4307 157.243 73.1815 156.975 72.8541 156.846C72.5267 156.718 72.1662 156.738 71.7724 156.903ZM72.6194 157.826L71.7767 158.181C71.7393 158.047 71.7325 157.931 71.7563 157.835C71.7912 157.697 71.8787 157.598 72.0216 157.539C72.1509 157.484 72.2674 157.481 72.3702 157.528C72.474 157.575 72.5488 157.656 72.5947 157.771L72.6186 157.827L72.6194 157.826Z" fill="#60439D"/>
<path d="M74.9145 155.605C74.8796 155.61 74.8465 155.619 74.8133 155.633C74.7214 155.671 74.6483 155.739 74.5922 155.835C74.5369 155.932 74.5072 156.032 74.5029 156.138L74.491 156.143L74.3736 155.898L73.491 156.27L74.5811 158.863L75.4961 158.478L74.8379 156.913C74.8311 156.806 74.855 156.706 74.9085 156.614C74.9621 156.522 75.0344 156.458 75.1237 156.42C75.1577 156.405 75.1908 156.393 75.2223 156.384C75.2538 156.374 75.2844 156.368 75.3141 156.365L74.991 155.597C74.9732 155.597 74.9476 155.599 74.9128 155.604L74.9145 155.605Z" fill="#60439D"/>
<path d="M63.7153 149.645C63.7229 149.743 63.7314 149.83 63.7399 149.905C63.7493 149.981 63.7671 150.072 63.7952 150.178L63.7773 150.186C63.7229 150.09 63.6727 150.012 63.6268 149.953C63.5809 149.893 63.5239 149.827 63.4559 149.754L61.131 147.164L59.375 147.903L61.5783 153.144L62.6506 152.694L61.3657 149.637C61.3291 149.55 61.2883 149.458 61.2416 149.356C61.1948 149.256 61.1506 149.165 61.108 149.084L61.137 149.072C61.1846 149.151 61.239 149.237 61.3011 149.332C61.3632 149.425 61.4269 149.509 61.4916 149.584L63.8309 152.197L64.9355 151.732L64.7119 148.229C64.7042 148.131 64.6889 148.026 64.6668 147.915C64.6447 147.805 64.62 147.705 64.5945 147.618L64.6235 147.606C64.6515 147.692 64.6847 147.789 64.7229 147.892C64.7612 147.996 64.7986 148.091 64.8343 148.178L66.1192 151.235L67.4943 150.656L65.291 145.414L63.4993 146.168L63.7153 149.644V149.645Z" fill="#60439D"/>
<path d="M69.5164 147.699C69.5232 147.804 69.5369 147.892 69.5564 147.966C69.576 148.04 69.5972 148.123 69.6185 148.215L69.593 148.226C69.5445 148.144 69.5003 148.071 69.4595 148.004C69.4186 147.938 69.3659 147.867 69.2996 147.79L67.7647 146.063L66.3896 146.642L69.4969 149.792L69.5581 149.766C69.61 150.038 69.5955 150.243 69.5156 150.38C69.4348 150.516 69.3141 150.619 69.1533 150.687C69.0887 150.714 69.0181 150.737 68.9433 150.756C68.8676 150.775 68.7987 150.787 68.7358 150.791L69.1074 151.736C69.1865 151.736 69.2707 151.725 69.3591 151.701C69.4476 151.676 69.5479 151.64 69.661 151.593C70.0301 151.437 70.3047 151.21 70.4842 150.911C70.6636 150.613 70.7444 150.238 70.7274 149.787L70.525 144.903L69.3447 145.4L69.5156 147.7L69.5164 147.699Z" fill="#60439D"/>
<path d="M77.5694 145.426L76.8279 143.662C76.6374 143.208 76.3424 142.943 75.9427 142.865C75.543 142.787 75.0736 142.862 74.5336 143.089C73.9987 143.315 73.6025 143.612 73.3457 143.981C73.0889 144.35 73.0378 144.718 73.1918 145.086L73.2249 145.165L74.5387 144.612L74.5056 144.533C74.4613 144.427 74.4605 144.327 74.5039 144.231C74.5472 144.135 74.6569 144.05 74.8347 143.975C75.0149 143.899 75.1552 143.887 75.2556 143.939C75.3568 143.991 75.4342 144.082 75.4886 144.211L75.5677 144.398L74.9163 144.672C74.4027 144.888 74.02 145.174 73.7666 145.529C73.5132 145.884 73.4817 146.287 73.6714 146.739C73.8423 147.144 74.094 147.391 74.4265 147.478C74.7598 147.566 75.1153 147.529 75.4945 147.37C75.8015 147.241 76.0396 147.077 76.2097 146.881C76.3798 146.683 76.4674 146.505 76.4733 146.344C76.5158 146.419 76.5652 146.495 76.6204 146.573C76.6757 146.65 76.7259 146.71 76.7718 146.752L78.089 146.199L78.0652 146.141C77.9785 146.07 77.8909 145.971 77.8007 145.843C77.7106 145.715 77.6332 145.577 77.5703 145.425L77.5694 145.426ZM75.9878 145.401C76.0702 145.597 76.0838 145.776 76.0286 145.937C75.9733 146.096 75.8449 146.219 75.6434 146.304C75.4707 146.376 75.327 146.385 75.2131 146.328C75.0991 146.272 75.0141 146.176 74.9571 146.041C74.8976 145.9 74.9052 145.773 74.9792 145.661C75.0532 145.549 75.2046 145.446 75.4325 145.35L75.8857 145.159L75.9869 145.401H75.9878Z" fill="#60439D"/>
<path d="M81.5312 141.946L81.4811 141.857C81.277 141.465 80.9632 141.196 80.5397 141.048C80.1162 140.9 79.6128 140.948 79.0295 141.193C78.4223 141.448 78.0014 141.828 77.7667 142.331C77.532 142.833 77.5439 143.393 77.8032 144.01L77.8517 144.125C78.1111 144.741 78.5031 145.141 79.0278 145.325C79.5524 145.508 80.1171 145.473 80.7217 145.219C81.3067 144.973 81.7013 144.637 81.9037 144.213C82.1069 143.789 82.1231 143.375 81.9539 142.972L81.9284 142.911L80.629 143.457L80.652 143.51C80.7098 143.647 80.72 143.785 80.6843 143.925C80.6486 144.064 80.521 144.18 80.3025 144.272C80.0797 144.365 79.8815 144.36 79.7089 144.255C79.5363 144.149 79.3866 143.947 79.2608 143.647L79.129 143.334C79.004 143.036 78.9674 142.788 79.0193 142.589C79.0711 142.391 79.2038 142.246 79.4181 142.157C79.5984 142.081 79.7565 142.069 79.8934 142.118C80.0304 142.168 80.1315 142.272 80.1987 142.43L80.2259 142.495L81.5321 141.945L81.5312 141.946Z" fill="#60439D"/>
<path d="M85.7848 140.156L85.7346 140.067C85.5305 139.676 85.2167 139.406 84.7933 139.258C84.3698 139.11 83.8664 139.158 83.283 139.404C82.6758 139.659 82.2549 140.039 82.0202 140.542C81.7855 141.044 81.7974 141.604 82.0568 142.221L82.1053 142.336C82.3646 142.952 82.7566 143.352 83.2813 143.536C83.806 143.719 84.3706 143.684 84.9752 143.43C85.5603 143.184 85.9549 142.848 86.1572 142.424C86.3596 142 86.3766 141.586 86.2074 141.183L86.1819 141.122L84.8825 141.668L84.9055 141.721C84.9633 141.858 84.9735 141.996 84.9378 142.136C84.9021 142.275 84.7745 142.391 84.556 142.483C84.3332 142.576 84.1351 142.571 83.9624 142.466C83.7898 142.36 83.6402 142.158 83.5143 141.858L83.3825 141.545C83.2575 141.247 83.2209 140.999 83.2728 140.8C83.3247 140.602 83.4573 140.457 83.6716 140.368C83.8519 140.292 84.0101 140.28 84.147 140.329C84.2839 140.379 84.3851 140.483 84.4523 140.641L84.4795 140.706L85.7856 140.156H85.7848Z" fill="#60439D"/>
<path d="M89.2594 137.495C88.7279 137.315 88.1599 137.352 87.5553 137.606C86.9507 137.861 86.5272 138.241 86.2857 138.746C86.0433 139.252 86.0527 139.813 86.312 140.43L86.3605 140.545C86.619 141.159 87.0136 141.557 87.5442 141.739C88.0748 141.921 88.6429 141.884 89.2475 141.63C89.8521 141.376 90.2756 140.995 90.5179 140.488C90.7603 139.981 90.7526 139.419 90.4941 138.805L90.4457 138.69C90.1863 138.073 89.7909 137.675 89.2594 137.495ZM89.1642 139.48C89.3028 139.809 89.3359 140.062 89.2636 140.24C89.1922 140.419 89.0477 140.553 88.8325 140.644C88.6191 140.734 88.4226 140.742 88.2441 140.67C88.0655 140.596 87.9065 140.396 87.7687 140.067L87.6369 139.754C87.5 139.428 87.4694 139.175 87.5468 138.995C87.6242 138.816 87.7653 138.683 87.9719 138.597C88.1786 138.51 88.3725 138.501 88.5544 138.572C88.7364 138.642 88.8963 138.841 89.0332 139.166L89.165 139.48H89.1642Z" fill="#60439D"/>
<path d="M93.7178 138.051C93.7195 138.183 93.6846 138.313 93.6123 138.441C93.54 138.569 93.438 138.661 93.3062 138.716C93.1718 138.772 93.0443 138.779 92.9244 138.735C92.8045 138.69 92.6948 138.551 92.5961 138.316L91.6318 136.023L90.2933 136.586L91.2347 138.825C91.483 139.415 91.7874 139.783 92.1471 139.928C92.5077 140.073 92.8742 140.067 93.2492 139.909C93.4865 139.81 93.6837 139.678 93.8394 139.515C93.995 139.351 94.0894 139.179 94.1225 138.995L94.1404 138.987L94.3292 139.366L95.6141 138.826L94.0145 135.021L92.6795 135.582L93.7178 138.051Z" fill="#60439D"/>
<path d="M98.3013 133.517C97.9476 133.403 97.5726 133.43 97.1763 133.596C96.9484 133.692 96.7579 133.826 96.6057 133.997C96.4535 134.169 96.3693 134.334 96.3548 134.492L96.3336 134.501L96.1524 134.12L94.8641 134.662L96.4637 138.467L97.7987 137.906L96.7622 135.44C96.7554 135.276 96.7936 135.135 96.877 135.019C96.9603 134.901 97.0598 134.819 97.1746 134.77C97.3208 134.709 97.4493 134.697 97.5598 134.735C97.6703 134.774 97.7664 134.888 97.8472 135.081L98.849 137.463L100.184 136.902L99.2053 134.573C98.9569 133.983 98.6559 133.63 98.3022 133.516L98.3013 133.517Z" fill="#60439D"/>
<path d="M101.83 132.859L101.428 131.901L100.795 132.167L100.43 131.3L99.1058 131.857L99.4706 132.724L98.974 132.934L99.3762 133.892L99.866 133.686L100.534 135.273C100.732 135.744 101.003 136.035 101.348 136.148C101.693 136.262 102.072 136.232 102.482 136.059C102.599 136.01 102.705 135.952 102.798 135.886C102.892 135.819 102.958 135.761 102.996 135.711L102.614 134.8C102.58 134.834 102.541 134.868 102.498 134.902C102.455 134.936 102.409 134.963 102.364 134.982C102.268 135.022 102.177 135.026 102.091 134.992C102.004 134.957 101.924 134.853 101.851 134.678L101.199 133.126L101.832 132.86L101.83 132.859Z" fill="#60439D"/>
<path d="M103.279 173.111L74.0261 185.418L86.3289 214.682L115.582 202.375L103.279 173.111Z" fill="#E4E7FF"/>
<path d="M100.084 185.386L101.667 181.503C101.983 180.727 101.608 179.832 100.831 179.515L100.246 179.277C99.4698 178.961 98.5752 179.337 98.2589 180.113L96.6755 183.996C91.45 182.812 85.983 185.543 83.892 190.67C81.5645 196.378 84.3036 202.892 90.0087 205.22C95.7137 207.549 102.226 204.809 104.553 199.101C106.643 193.974 104.647 188.197 100.084 185.387V185.386Z" fill="#CECDFF"/>
<path d="M100.928 201.593C104.632 197.889 104.632 191.882 100.928 188.177C97.2249 184.472 91.2204 184.472 87.517 188.177C83.8135 191.882 83.8135 197.889 87.517 201.593C91.2204 205.298 97.2249 205.298 100.928 201.593Z" fill="#E4E7FF"/>
<path d="M98.6211 200.272C99.1015 200.713 99.2733 201.31 99.116 201.893C98.9901 202.36 98.6678 202.751 98.2359 202.969C95.9883 204.106 93.2799 204.299 90.7646 203.273C86.1573 201.393 83.9463 196.132 85.8256 191.524C86.2712 190.433 85.579 196.861 88.4133 196.132C91.2442 195.405 89.972 199.408 92.6932 200.3C94.3063 200.829 96.7401 198.545 98.6211 200.274V200.272Z" fill="#F3F5FF"/>
<path d="M98.6211 200.272C98.9111 200.538 99.0888 200.862 99.1492 201.204C99.1951 201.463 99.116 201.893 99.116 201.893C99.116 201.893 98.7776 201.461 98.2861 201.079C97.8566 200.743 97.411 200.653 97.036 200.581C95.1763 200.223 94.1184 201.251 92.5861 200.773C91.8284 200.537 91.3505 200.056 91.2085 199.909C89.9508 198.614 90.3258 196.832 89.1676 196.322C88.8156 196.168 88.4142 196.132 88.4142 196.132C88.4142 196.132 89.2059 195.95 89.6523 196.182C90.9032 196.832 90.4976 199.579 92.6941 200.298C94.3072 200.828 96.741 198.544 98.622 200.272H98.6211Z" fill="white"/>
<path d="M98.8846 203.147C99.6959 202.305 100.364 201.297 100.833 200.147C102.811 195.296 100.483 189.759 95.6337 187.78C92.8428 186.641 89.8257 186.929 87.3894 188.303C90.0034 185.589 94.103 184.59 97.8038 186.101C102.653 188.08 104.981 193.617 103.003 198.468C102.163 200.528 100.682 202.133 98.8846 203.147Z" fill="#AA99FF"/>
<path d="M112.992 150.847L68.7912 169.442C68.3099 169.645 67.7546 169.419 67.5522 168.937L67.428 168.642C67.2256 168.16 67.4518 167.605 67.9331 167.403L112.134 148.808C112.616 148.605 113.171 148.831 113.373 149.313L113.497 149.608C113.7 150.09 113.474 150.645 112.992 150.847Z" fill="#CECDFF"/>
<path d="M102.894 161.484L71.0718 174.871C70.5905 175.073 70.0361 174.847 69.8328 174.365L69.7087 174.07C69.5063 173.589 69.7325 173.034 70.2138 172.832L102.036 159.445C102.517 159.242 103.072 159.468 103.275 159.95L103.399 160.245C103.602 160.727 103.375 161.281 102.894 161.484V161.484Z" fill="#CECDFF"/>
<path d="M124.422 158.622L73.2852 180.134C72.8039 180.337 72.2494 180.111 72.0462 179.629L71.922 179.334C71.7197 178.852 71.9458 178.298 72.4272 178.095L123.564 156.582C124.045 156.379 124.6 156.606 124.803 157.087L124.927 157.382C125.129 157.864 124.903 158.418 124.422 158.622Z" fill="#CECDFF"/>
<path d="M123.854 172.813L111.539 177.993C110.976 178.23 110.327 177.965 110.091 177.402C109.854 176.839 110.119 176.19 110.682 175.953L122.997 170.773C123.56 170.536 124.208 170.801 124.445 171.364C124.681 171.927 124.417 172.576 123.854 172.813Z" fill="#CECDFF"/>
<path d="M135.077 176.389L114.502 185.045C113.939 185.281 113.291 185.017 113.054 184.453C112.818 183.89 113.082 183.241 113.645 183.005L134.22 174.349C134.783 174.113 135.432 174.377 135.668 174.94C135.904 175.503 135.64 176.152 135.077 176.389Z" fill="#CECDFF"/>
<path d="M138.041 183.44L117.467 192.095C116.904 192.332 116.255 192.067 116.019 191.504C115.782 190.941 116.047 190.292 116.61 190.055L137.184 181.4C137.747 181.163 138.396 181.428 138.632 181.991C138.869 182.554 138.604 183.203 138.041 183.44Z" fill="#CECDFF"/>
<path d="M117.69 207.831L88.2548 220.216L100.551 249.464L129.987 237.079L117.69 207.831Z" fill="white"/>
<path d="M117.695 207.841L88.2463 220.231L100.538 249.469L129.987 237.079L117.695 207.841Z" fill="#E4E7FF"/>
<path d="M111.115 225.923C113.895 224.754 117.658 232.539 119.983 231.742C121.406 231.254 120.858 228.059 122.196 227.496C123.123 227.106 124.539 227.306 129.982 237.084C122.158 240.376 107.436 246.569 107.436 246.569C107.436 246.569 108.336 227.093 111.115 225.923H111.115Z" fill="#F3F5FF"/>
<path d="M96.2467 228.598C99.8497 227.082 105.896 241.533 110.024 240.043C112.313 239.217 111.541 234.391 114.036 233.447C116.452 232.535 120.112 235.945 123.394 239.856C115.775 243.061 108.157 246.265 100.539 249.471C95.6863 234.347 93.7756 229.637 96.2467 228.598Z" fill="#AA99FF"/>
<path d="M138.263 207.503L125.948 212.684C125.385 212.92 124.737 212.656 124.5 212.093C124.264 211.529 124.528 210.88 125.091 210.644L137.406 205.463C137.969 205.227 138.618 205.491 138.854 206.055C139.091 206.618 138.826 207.267 138.263 207.503Z" fill="#CECDFF"/>
<path d="M149.487 211.079L128.913 219.735C128.35 219.971 127.701 219.706 127.465 219.143C127.228 218.58 127.493 217.931 128.056 217.695L148.63 209.039C149.193 208.802 149.842 209.067 150.078 209.63C150.315 210.193 150.05 210.842 149.487 211.079Z" fill="#CECDFF"/>
<path d="M152.451 218.13L131.876 226.786C131.313 227.022 130.665 226.758 130.428 226.195C130.192 225.631 130.456 224.982 131.019 224.746L151.594 216.09C152.157 215.854 152.805 216.118 153.042 216.681C153.278 217.245 153.014 217.894 152.451 218.13Z" fill="#CECDFF"/>
<path d="M90.814 74.7486L37.2852 97.2678C29.7493 100.438 26.2569 109.233 29.4831 116.908L90.0572 260.999C93.2852 268.676 102.011 272.331 109.547 269.16L163.075 246.641C170.611 243.471 174.103 234.677 170.875 227L110.301 82.9092C107.074 75.2335 98.3499 71.579 90.814 74.7495V74.7486ZM169.008 227.784C171.794 234.411 168.781 242.001 162.276 244.738L108.747 267.257C102.243 269.994 94.7095 266.839 91.9237 260.213L31.3497 116.124C28.5639 109.497 31.5801 101.907 38.0846 99.1707L43.424 96.9241C44.0108 96.6774 44.6732 97.0126 44.8603 97.6327C44.8841 97.7169 44.9147 97.7994 44.9496 97.8811L46.2455 100.963C47.0092 102.78 49.0934 103.652 50.8766 102.902L85.5919 88.2974C87.3768 87.5462 88.2102 85.4476 87.4457 83.6305L86.1497 80.5485C86.1157 80.4669 86.0783 80.3869 86.0358 80.3103C85.722 79.7429 85.9457 79.0352 86.5324 78.7885L91.6116 76.6516C98.1161 73.9149 105.647 77.0684 108.433 83.6952L169.007 227.786L169.008 227.784Z" fill="#1E1F2D"/>
<path d="M73.0199 89.9091L60.5587 95.151C59.8861 95.4334 59.1054 95.1153 58.8223 94.4424C58.5399 93.7695 58.858 92.9886 59.5306 92.7053L71.9919 87.4634C72.6645 87.181 73.4451 87.4991 73.7283 88.172C74.0106 88.8449 73.6926 89.6258 73.0199 89.9091Z" fill="#333333"/>
<path d="M77.8427 87.8857C78.5648 87.582 78.8946 86.7276 78.5793 85.9772C78.264 85.2269 77.4231 84.8648 76.7009 85.1684C75.9788 85.4721 75.649 86.3265 75.9643 87.0769C76.2796 87.8272 77.1206 88.1893 77.8427 87.8857Z" fill="#333333"/>
<path opacity="0.15" d="M49.9724 91.0186L36.6863 96.5607C28.7941 99.8809 25.1588 109.306 28.6053 117.505L89.0033 261.178C92.4499 269.377 101.726 273.371 109.619 270.051L155.458 250.847L49.9724 91.0186Z" fill="white"/>
</g>
<defs>
<linearGradient id="paint0_linear_14_2593" x1="197.764" y1="206.475" x2="264.111" y2="188.954" gradientUnits="userSpaceOnUse">
<stop offset="0.07" stop-color="#F4CA90"/>
<stop offset="0.26" stop-color="#F2CC9E"/>
<stop offset="0.5" stop-color="#F2CDA9"/>
<stop offset="0.76" stop-color="#F2CEAD"/>
</linearGradient>
<linearGradient id="paint1_linear_14_2593" x1="221.45" y1="215.338" x2="267.578" y2="203.157" gradientUnits="userSpaceOnUse">
<stop stop-color="#EFD4BD"/>
<stop offset="1" stop-color="#EFE8DF"/>
</linearGradient>
<linearGradient id="paint2_linear_14_2593" x1="206.384" y1="209.086" x2="211.101" y2="208.136" gradientUnits="userSpaceOnUse">
<stop stop-color="#EFD4BD"/>
<stop offset="1" stop-color="#EFE8DF"/>
</linearGradient>
<linearGradient id="paint3_linear_14_2593" x1="209.145" y1="196.385" x2="215.125" y2="195.181" gradientUnits="userSpaceOnUse">
<stop stop-color="#EFD4BD"/>
<stop offset="1" stop-color="#EFE8DF"/>
</linearGradient>
<linearGradient id="paint4_linear_14_2593" x1="213.988" y1="219.028" x2="216.243" y2="218.574" gradientUnits="userSpaceOnUse">
<stop stop-color="#EFD4BD"/>
<stop offset="1" stop-color="#EFE8DF"/>
</linearGradient>
<linearGradient id="paint5_linear_14_2593" x1="250.838" y1="231.081" x2="254.116" y2="230.42" gradientUnits="userSpaceOnUse">
<stop stop-color="#EFD4BD"/>
<stop offset="1" stop-color="#EFE8DF"/>
</linearGradient>
<linearGradient id="paint6_linear_14_2593" x1="259.59" y1="236.414" x2="261.524" y2="236.025" gradientUnits="userSpaceOnUse">
<stop stop-color="#EFD4BD"/>
<stop offset="1" stop-color="#EFE8DF"/>
</linearGradient>
<linearGradient id="paint7_linear_14_2593" x1="199.604" y1="187.196" x2="203.216" y2="186.469" gradientUnits="userSpaceOnUse">
<stop stop-color="#EFD4BD"/>
<stop offset="1" stop-color="#EFE8DF"/>
</linearGradient>
<linearGradient id="paint8_linear_14_2593" x1="199.346" y1="171.313" x2="200.966" y2="170.987" gradientUnits="userSpaceOnUse">
<stop stop-color="#EFD4BD"/>
<stop offset="1" stop-color="#EFE8DF"/>
</linearGradient>
<linearGradient id="paint9_linear_14_2593" x1="212.263" y1="182.15" x2="216.834" y2="181.23" gradientUnits="userSpaceOnUse">
<stop stop-color="#EFD4BD"/>
<stop offset="1" stop-color="#EFE8DF"/>
</linearGradient>
<linearGradient id="paint10_linear_14_2593" x1="209.302" y1="183.025" x2="211.686" y2="182.545" gradientUnits="userSpaceOnUse">
<stop stop-color="#EFD4BD"/>
<stop offset="1" stop-color="#EFE8DF"/>
</linearGradient>
<linearGradient id="paint11_linear_14_2593" x1="209.122" y1="179.366" x2="211.797" y2="178.827" gradientUnits="userSpaceOnUse">
<stop stop-color="#EFD4BD"/>
<stop offset="1" stop-color="#EFE8DF"/>
</linearGradient>
<linearGradient id="paint12_linear_14_2593" x1="273.959" y1="230.487" x2="276.343" y2="230.007" gradientUnits="userSpaceOnUse">
<stop stop-color="#EFD4BD"/>
<stop offset="1" stop-color="#EFE8DF"/>
</linearGradient>
<linearGradient id="paint13_linear_14_2593" x1="273.938" y1="224.848" x2="278.217" y2="223.986" gradientUnits="userSpaceOnUse">
<stop stop-color="#EFD4BD"/>
<stop offset="1" stop-color="#EFE8DF"/>
</linearGradient>
<linearGradient id="paint14_linear_14_2593" x1="185.496" y1="233.906" x2="39.5606" y2="128.007" gradientUnits="userSpaceOnUse">
<stop stop-color="#F5CEE1"/>
<stop offset="0.99" stop-color="#9897F4"/>
</linearGradient>
<clipPath id="clip0_14_2593">
<rect width="354" height="312" fill="white"/>
</clipPath>
</defs>
</svg>
